<svg width="209" height="81" viewBox="0 0 209 81" fill="none" xmlns="http://www.w3.org/2000/svg">
<path d="M4.6582 76.7578C5.70508 76.7578 6.42969 76.2344 6.83203 75.1875L8.33789 75.7559C8.01367 76.5527 7.53711 77.1465 6.9082 77.5371C6.2832 77.9238 5.5332 78.1172 4.6582 78.1172C3.77539 78.1172 3.02344 77.9492 2.40234 77.6133C1.78125 77.2734 1.30664 76.7832 0.978516 76.1426C0.654297 75.502 0.492188 74.7324 0.492188 73.834C0.492188 72.9277 0.648438 72.1621 0.960938 71.5371C1.27344 70.9121 1.73438 70.4375 2.34375 70.1133C2.95312 69.7852 3.69922 69.6211 4.58203 69.6211C5.55078 69.6211 6.33984 69.8164 6.94922 70.207C7.55859 70.5938 7.98633 71.1641 8.23242 71.918L6.70898 72.334C6.58008 71.9199 6.32617 71.5918 5.94727 71.3496C5.57227 71.1035 5.12891 70.9805 4.61719 70.9805C3.83594 70.9805 3.24219 71.2227 2.83594 71.707C2.43359 72.1914 2.23242 72.9004 2.23242 73.834C2.23242 74.4668 2.32422 75 2.50781 75.4336C2.69531 75.8672 2.96875 76.1973 3.32812 76.4238C3.69141 76.6465 4.13477 76.7578 4.6582 76.7578ZM16.207 76.6641V78H9.47461V69.7441H15.9668V71.0801H11.2031V73.1543H15.6094V74.4902H11.2031V76.6641H16.207ZM24.2695 72.3574C24.2695 72.8926 24.1465 73.3672 23.9004 73.7812C23.6582 74.1914 23.3125 74.5137 22.8633 74.748C22.4141 74.9785 21.8789 75.0938 21.2578 75.0938H19.207V78H17.4785V69.7441H21.1875C22.1758 69.7441 22.9355 69.9727 23.4668 70.4297C24.002 70.8828 24.2695 71.5254 24.2695 72.3574ZM22.5293 72.3867C22.5293 71.5195 22.0176 71.0859 20.9941 71.0859H19.207V73.7637H21.041C21.5176 73.7637 21.8848 73.6465 22.1426 73.4121C22.4004 73.1738 22.5293 72.832 22.5293 72.3867ZM32.8008 75.6445C32.8008 76.3945 32.5195 76.9746 31.957 77.3848C31.3945 77.7949 30.6133 78 29.6133 78H25.4824V69.7441H29.2617C30.2695 69.7441 31.0312 69.9199 31.5469 70.2715C32.0664 70.6191 32.3262 71.1348 32.3262 71.8184C32.3262 72.2871 32.1953 72.6836 31.9336 73.0078C31.6758 73.3281 31.2812 73.5449 30.75 73.6582C31.418 73.7363 31.9258 73.9473 32.2734 74.291C32.625 74.6309 32.8008 75.082 32.8008 75.6445ZM30.5859 72.0527C30.5859 71.6816 30.4668 71.418 30.2285 71.2617C29.9941 71.1055 29.6445 71.0273 29.1797 71.0273H27.2109V73.0723H29.1914C29.6797 73.0723 30.0332 72.9883 30.252 72.8203C30.4746 72.6484 30.5859 72.3926 30.5859 72.0527ZM31.0664 75.5098C31.0664 74.7363 30.5117 74.3496 29.4023 74.3496H27.2109V76.7168H29.4668C30.0215 76.7168 30.4258 76.6172 30.6797 76.418C30.9375 76.2148 31.0664 75.9121 31.0664 75.5098ZM39.6855 71.6426L36.1172 78H34.1484V69.7441H35.6836V74.543C35.6836 74.75 35.6797 74.9883 35.6719 75.2578C35.6641 75.5273 35.6523 75.8262 35.6367 76.1543L39.2285 69.7441H41.1738V78H39.6387V73.1309C39.6387 72.9785 39.6426 72.7793 39.6504 72.5332C39.6582 72.2832 39.6699 71.9863 39.6855 71.6426ZM46.6348 76.7578C47.6816 76.7578 48.4062 76.2344 48.8086 75.1875L50.3145 75.7559C49.9902 76.5527 49.5137 77.1465 48.8848 77.5371C48.2598 77.9238 47.5098 78.1172 46.6348 78.1172C45.752 78.1172 45 77.9492 44.3789 77.6133C43.7578 77.2734 43.2832 76.7832 42.9551 76.1426C42.6309 75.502 42.4688 74.7324 42.4688 73.834C42.4688 72.9277 42.625 72.1621 42.9375 71.5371C43.25 70.9121 43.7109 70.4375 44.3203 70.1133C44.9297 69.7852 45.6758 69.6211 46.5586 69.6211C47.5273 69.6211 48.3164 69.8164 48.9258 70.207C49.5352 70.5938 49.9629 71.1641 50.209 71.918L48.6855 72.334C48.5566 71.9199 48.3027 71.5918 47.9238 71.3496C47.5488 71.1035 47.1055 70.9805 46.5938 70.9805C45.8125 70.9805 45.2188 71.2227 44.8125 71.707C44.4102 72.1914 44.209 72.9004 44.209 73.834C44.209 74.4668 44.3008 75 44.4844 75.4336C44.6719 75.8672 44.9453 76.1973 45.3047 76.4238C45.668 76.6465 46.1113 76.7578 46.6348 76.7578ZM56.5137 71.1738V78H54.791V69.7441H61.8105V78H60.1406V71.1738H56.5137ZM70.207 72.3574C70.207 72.8926 70.084 73.3672 69.8379 73.7812C69.5957 74.1914 69.25 74.5137 68.8008 74.748C68.3516 74.9785 67.8164 75.0938 67.1953 75.0938H65.1445V78H63.416V69.7441H67.125C68.1133 69.7441 68.873 69.9727 69.4043 70.4297C69.9395 70.8828 70.207 71.5254 70.207 72.3574ZM68.4668 72.3867C68.4668 71.5195 67.9551 71.0859 66.9316 71.0859H65.1445V73.7637H66.9785C67.4551 73.7637 67.8223 73.6465 68.0801 73.4121C68.3379 73.1738 68.4668 72.832 68.4668 72.3867ZM79.2832 73.834C79.2832 74.6934 79.1094 75.4453 78.7617 76.0898C78.418 76.7305 77.9316 77.2285 77.3027 77.584C76.6777 77.9395 75.9434 78.1172 75.0996 78.1172C74.2363 78.1172 73.4941 77.9453 72.873 77.6016C72.252 77.2539 71.7754 76.7598 71.4434 76.1191C71.1113 75.4785 70.9453 74.7168 70.9453 73.834C70.9453 72.9512 71.1094 72.1953 71.4375 71.5664C71.7695 70.9375 72.2461 70.457 72.8672 70.125C73.4922 69.7891 74.2402 69.6211 75.1113 69.6211C75.9863 69.6211 76.7344 69.791 77.3555 70.1309C77.9766 70.4668 78.4531 70.9492 78.7852 71.5781C79.1172 72.207 79.2832 72.959 79.2832 73.834ZM77.5195 73.834C77.5195 72.9434 77.3086 72.2461 76.8867 71.7422C76.4648 71.2344 75.873 70.9805 75.1113 70.9805C74.3379 70.9805 73.7402 71.2324 73.3184 71.7363C72.8965 72.2363 72.6855 72.9355 72.6855 73.834C72.6855 74.4355 72.7832 74.9551 72.9785 75.3926C73.1738 75.8301 73.4512 76.168 73.8105 76.4062C74.1738 76.6406 74.6035 76.7578 75.0996 76.7578C75.873 76.7578 76.4688 76.5039 76.8867 75.9961C77.3086 75.4883 77.5195 74.7676 77.5195 73.834ZM82.3184 74.4551V78H80.5957V69.7441H82.3242V73.2539C82.4258 73.2539 82.5312 73.2246 82.6406 73.166C82.75 73.1035 82.8633 73.0117 82.9805 72.8906C83.2188 72.6367 83.5195 72.2207 83.8828 71.6426L85.0898 69.7441H86.8477L85.2949 72.1172C84.8066 72.8594 84.4727 73.2969 84.293 73.4297L87.1348 78H85.2539L83.0625 74.25C82.9844 74.3008 82.8691 74.3477 82.7168 74.3906C82.5645 74.4336 82.4316 74.4551 82.3184 74.4551ZM89.877 75.8906L89.1445 78H87.416L90.4277 69.7441H92.4668L95.4668 78H93.7559L93.0234 75.8906H89.877ZM91.4473 71.0156C91.4082 71.1719 91.3535 71.3594 91.2832 71.5781C91.2129 71.7969 91.1621 71.9512 91.1309 72.041L90.2637 74.5898H92.6367L91.7461 71.9883C91.6914 71.8281 91.6406 71.666 91.5938 71.502C91.5469 71.3379 91.498 71.1758 91.4473 71.0156ZM99.7207 71.0801V78H97.9922V71.0801H95.3262V69.7441H102.393V71.0801H99.7207ZM104.525 75.8906L103.793 78H102.064L105.076 69.7441H107.115L110.115 78H108.404L107.672 75.8906H104.525ZM106.096 71.0156C106.057 71.1719 106.002 71.3594 105.932 71.5781C105.861 71.7969 105.811 71.9512 105.779 72.041L104.912 74.5898H107.285L106.395 71.9883C106.34 71.8281 106.289 71.666 106.242 71.502C106.195 71.3379 106.146 71.1758 106.096 71.0156ZM121.898 75.6445C121.898 76.3945 121.617 76.9746 121.055 77.3848C120.492 77.7949 119.711 78 118.711 78H114.58V69.7441H118.359C119.367 69.7441 120.129 69.9199 120.645 70.2715C121.164 70.6191 121.424 71.1348 121.424 71.8184C121.424 72.2871 121.293 72.6836 121.031 73.0078C120.773 73.3281 120.379 73.5449 119.848 73.6582C120.516 73.7363 121.023 73.9473 121.371 74.291C121.723 74.6309 121.898 75.082 121.898 75.6445ZM119.684 72.0527C119.684 71.6816 119.564 71.418 119.326 71.2617C119.092 71.1055 118.742 71.0273 118.277 71.0273H116.309V73.0723H118.289C118.777 73.0723 119.131 72.9883 119.35 72.8203C119.572 72.6484 119.684 72.3926 119.684 72.0527ZM120.164 75.5098C120.164 74.7363 119.609 74.3496 118.5 74.3496H116.309V76.7168H118.564C119.119 76.7168 119.523 76.6172 119.777 76.418C120.035 76.2148 120.164 75.9121 120.164 75.5098ZM129.984 76.6641V78H123.252V69.7441H129.744V71.0801H124.98V73.1543H129.387V74.4902H124.98V76.6641H129.984ZM133.119 76.3594C132.92 76.9844 132.668 77.4297 132.363 77.6953C132.059 77.9609 131.631 78.0938 131.08 78.0938C130.814 78.0938 130.621 78.0605 130.5 77.9941V76.5469C130.551 76.5742 130.635 76.5879 130.752 76.5879C130.865 76.5879 130.967 76.5547 131.057 76.4883C131.146 76.418 131.229 76.3145 131.303 76.1777C131.369 76.0527 131.432 75.8965 131.49 75.709C131.553 75.5176 131.613 75.291 131.672 75.0293C131.707 74.8691 131.744 74.6797 131.783 74.4609C131.822 74.2422 131.871 73.9473 131.93 73.5762C131.992 73.2012 132.068 72.707 132.158 72.0938C132.248 71.4805 132.359 70.6973 132.492 69.7441H138.07V78H136.406V71.1738H134.021L133.734 73.2129C133.523 74.6738 133.318 75.7227 133.119 76.3594ZM147.709 73.834C147.709 74.6934 147.535 75.4453 147.188 76.0898C146.844 76.7305 146.357 77.2285 145.729 77.584C145.104 77.9395 144.369 78.1172 143.525 78.1172C142.662 78.1172 141.92 77.9453 141.299 77.6016C140.678 77.2539 140.201 76.7598 139.869 76.1191C139.537 75.4785 139.371 74.7168 139.371 73.834C139.371 72.9512 139.535 72.1953 139.863 71.5664C140.195 70.9375 140.672 70.457 141.293 70.125C141.918 69.7891 142.666 69.6211 143.537 69.6211C144.412 69.6211 145.16 69.791 145.781 70.1309C146.402 70.4668 146.879 70.9492 147.211 71.5781C147.543 72.207 147.709 72.959 147.709 73.834ZM145.945 73.834C145.945 72.9434 145.734 72.2461 145.312 71.7422C144.891 71.2344 144.299 70.9805 143.537 70.9805C142.764 70.9805 142.166 71.2324 141.744 71.7363C141.322 72.2363 141.111 72.9355 141.111 73.834C141.111 74.4355 141.209 74.9551 141.404 75.3926C141.6 75.8301 141.877 76.168 142.236 76.4062C142.6 76.6406 143.029 76.7578 143.525 76.7578C144.299 76.7578 144.895 76.5039 145.312 75.9961C145.734 75.4883 145.945 74.7676 145.945 73.834ZM152.877 76.7578C153.924 76.7578 154.648 76.2344 155.051 75.1875L156.557 75.7559C156.232 76.5527 155.756 77.1465 155.127 77.5371C154.502 77.9238 153.752 78.1172 152.877 78.1172C151.994 78.1172 151.242 77.9492 150.621 77.6133C150 77.2734 149.525 76.7832 149.197 76.1426C148.873 75.502 148.711 74.7324 148.711 73.834C148.711 72.9277 148.867 72.1621 149.18 71.5371C149.492 70.9121 149.953 70.4375 150.562 70.1133C151.172 69.7852 151.918 69.6211 152.801 69.6211C153.77 69.6211 154.559 69.8164 155.168 70.207C155.777 70.5938 156.205 71.1641 156.451 71.918L154.928 72.334C154.799 71.9199 154.545 71.5918 154.166 71.3496C153.791 71.1035 153.348 70.9805 152.836 70.9805C152.055 70.9805 151.461 71.2227 151.055 71.707C150.652 72.1914 150.451 72.9004 150.451 73.834C150.451 74.4668 150.543 75 150.727 75.4336C150.914 75.8672 151.188 76.1973 151.547 76.4238C151.91 76.6465 152.354 76.7578 152.877 76.7578ZM163.225 71.6426L159.656 78H157.688V69.7441H159.223V74.543C159.223 74.75 159.219 74.9883 159.211 75.2578C159.203 75.5273 159.191 75.8262 159.176 76.1543L162.768 69.7441H164.713V78H163.178V73.1309C163.178 72.9785 163.182 72.7793 163.189 72.5332C163.197 72.2832 163.209 71.9863 163.225 71.6426ZM168.041 71.1738V78H166.318V69.7441H173.338V78H171.668V71.1738H168.041ZM181.676 76.6641V78H174.943V69.7441H181.436V71.0801H176.672V73.1543H181.078V74.4902H176.672V76.6641H181.676ZM183.715 78V80.3906H182.25V76.5703H183.164C183.445 76.0586 183.695 75.4277 183.914 74.6777C184.133 73.9238 184.299 73.1484 184.412 72.3516L184.77 69.7441H189.393V76.5703H190.477V80.3906H189.012V78H183.715ZM184.975 76.5703H187.723V71.1738H186.188L186.006 72.5449C185.932 73.0762 185.84 73.5957 185.73 74.1035C185.621 74.6113 185.502 75.0781 185.373 75.5039C185.244 75.9258 185.111 76.2812 184.975 76.5703ZM199.529 73.834C199.529 74.6934 199.355 75.4453 199.008 76.0898C198.664 76.7305 198.178 77.2285 197.549 77.584C196.924 77.9395 196.189 78.1172 195.346 78.1172C194.482 78.1172 193.74 77.9453 193.119 77.6016C192.498 77.2539 192.021 76.7598 191.689 76.1191C191.357 75.4785 191.191 74.7168 191.191 73.834C191.191 72.9512 191.355 72.1953 191.684 71.5664C192.016 70.9375 192.492 70.457 193.113 70.125C193.738 69.7891 194.486 69.6211 195.357 69.6211C196.232 69.6211 196.98 69.791 197.602 70.1309C198.223 70.4668 198.699 70.9492 199.031 71.5781C199.363 72.207 199.529 72.959 199.529 73.834ZM197.766 73.834C197.766 72.9434 197.555 72.2461 197.133 71.7422C196.711 71.2344 196.119 70.9805 195.357 70.9805C194.584 70.9805 193.986 71.2324 193.564 71.7363C193.143 72.2363 192.932 72.9355 192.932 73.834C192.932 74.4355 193.029 74.9551 193.225 75.3926C193.42 75.8301 193.697 76.168 194.057 76.4062C194.42 76.6406 194.85 76.7578 195.346 76.7578C196.119 76.7578 196.715 76.5039 197.133 75.9961C197.555 75.4883 197.766 74.7676 197.766 73.834ZM208.16 75.6445C208.16 76.3945 207.879 76.9746 207.316 77.3848C206.754 77.7949 205.973 78 204.973 78H200.842V69.7441H204.621C205.629 69.7441 206.391 69.9199 206.906 70.2715C207.426 70.6191 207.686 71.1348 207.686 71.8184C207.686 72.2871 207.555 72.6836 207.293 73.0078C207.035 73.3281 206.641 73.5449 206.109 73.6582C206.777 73.7363 207.285 73.9473 207.633 74.291C207.984 74.6309 208.16 75.082 208.16 75.6445ZM205.945 72.0527C205.945 71.6816 205.826 71.418 205.588 71.2617C205.354 71.1055 205.004 71.0273 204.539 71.0273H202.57V73.0723H204.551C205.039 73.0723 205.393 72.9883 205.611 72.8203C205.834 72.6484 205.945 72.3926 205.945 72.0527ZM206.426 75.5098C206.426 74.7363 205.871 74.3496 204.762 74.3496H202.57V76.7168H204.826C205.381 76.7168 205.785 76.6172 206.039 76.418C206.297 76.2148 206.426 75.9121 206.426 75.5098Z" fill="#FFCB03"/>
<path fill-rule="evenodd" clip-rule="evenodd" d="M40.025 0.879597C37.8906 2.03609 37.2645 3.40381 37.2645 6.91139C37.2645 10.7548 39.2342 12.9582 43.1996 13.5514C46.3342 14.0206 46.784 13.8129 47.5841 11.523L48.1888 9.79052H45.4439C43.9344 9.79052 42.3867 9.47889 42.0051 9.09801C40.8755 7.97036 41.1478 4.72478 42.4295 4.03977C43.9453 3.23011 54.6084 3.24799 54.6084 4.06054C54.6084 4.40045 51.6165 13.1544 47.9599 23.5138C44.3032 33.8738 41.3114 42.5482 41.3114 42.7911C41.3114 43.1801 44.324 44.9933 44.9704 44.9933C45.1068 44.9933 46.47 41.3576 48.0009 36.914C49.5312 32.4703 51.0586 28.8358 51.3951 28.8375C51.7316 28.8393 53.0474 29.4804 54.3193 30.2624C55.5912 31.0443 56.8399 31.6924 57.0943 31.7022C57.3487 31.712 57.4788 30.2341 57.3834 28.4174C57.2198 25.2988 57.0943 25.0495 55.1339 23.9449C53.2417 22.879 53.1046 22.6338 53.592 21.1881L54.1268 19.6011H77.7121H101.298L97.5165 28.6904C93.8269 37.5615 93.7362 37.9043 93.7206 42.9735C93.7078 47.0841 93.9882 48.8898 95.063 51.6299C96.9107 56.3396 102.191 61.6454 106.706 63.3288C113.219 65.7583 120.298 65.5298 126.128 62.7026L128.609 61.4988V57.5942V53.689L126.152 55.3389C123.425 57.1706 118.388 58.8436 115.601 58.8436C109.904 58.8436 104.226 55.1779 102.01 50.0683C100.379 46.3068 100.23 40.1122 101.687 36.6231C102.766 34.0383 106.122 30.3166 108.496 29.073C110.055 28.2558 110.066 28.2639 110.708 30.7073C111.062 32.0577 111.709 34.4613 112.144 36.0483C112.58 37.6353 113.226 40.0551 113.579 41.4251C114.201 43.8408 114.277 43.9043 116.068 43.5217C117.083 43.3047 117.982 43.0675 118.065 42.9948C118.149 42.9227 116.392 36.0795 114.163 27.7884C111.933 19.4973 110.109 12.4619 110.109 12.1543C110.109 11.8467 110.928 11.5137 111.929 11.4139C114.148 11.194 115.307 9.67395 114.379 8.20351C113.827 7.32748 112.594 7.17282 105.071 7.03489C97.7987 6.90158 96.2794 7.02046 95.6532 7.773C95.0809 8.46205 95.0583 9.00163 95.5584 10.0964C96.1603 11.415 96.5123 11.5218 100.268 11.5218C102.501 11.5218 104.327 11.613 104.327 11.7244C104.327 11.8357 104.042 12.7447 103.693 13.7442L103.058 15.5615H79.4113C66.4057 15.5615 55.7669 15.3664 55.7698 15.1286C55.7739 14.7466 59.6421 3.63292 60.6909 0.989823C61.0632 0.0514668 60.3995 -0.0183611 51.346 0.00299143C43.876 0.0208814 41.2328 0.225171 40.025 0.879597ZM108.33 21.6389C108.355 21.9661 107.594 22.5276 106.64 22.8871C104.608 23.6529 104.598 23.6154 105.898 19.9947L106.897 17.2143L107.592 19.1291C107.974 20.1823 108.306 21.3116 108.33 21.6389ZM36.2817 22.407C30.3084 24.4672 26.6598 27.8507 23.7507 34.0285C22.184 37.356 21.9862 38.3659 22.0007 42.9735C22.0227 50.1294 23.5258 53.8869 28.2526 58.6058C30.7657 61.1139 32.7007 62.4649 35.0179 63.3288C41.5311 65.7583 48.6097 65.5298 54.4395 62.7026L56.9209 61.4988V57.4851C56.9209 53.6751 56.8688 53.5182 55.8935 54.3988C55.3281 54.9095 53.3122 56.0533 51.413 56.9409C46.5758 59.2014 40.4534 59.2297 36.6702 57.0084C33.2829 55.0198 31.8156 53.3906 30.261 49.8917C28.6619 46.29 28.5307 40.0499 29.9829 36.6254C31.9347 32.0214 37.5044 27.7353 41.6004 27.6845C42.5544 27.6724 43.6308 27.4721 43.9927 27.239C44.6443 26.8189 46.5145 22.8138 46.5145 21.8391C46.5145 20.9417 39.3827 21.3376 36.2817 22.407ZM114.156 21.5765C114.156 21.7958 114.448 23.1324 114.804 24.5463C115.486 27.2499 115.451 27.2269 120.226 27.9771C121.498 28.1768 123.901 29.1007 125.565 30.0304C127.23 30.9595 128.738 31.7201 128.918 31.7201C129.098 31.7201 129.167 30.2266 129.071 28.4018L128.898 25.0835L125.562 23.4186C123.193 22.2367 121.055 21.67 118.19 21.4657C115.971 21.307 114.156 21.3567 114.156 21.5765ZM136.125 42.9446V64.0374H147.109H158.094V60.8634V57.6894H150.586H143.079L142.926 39.9437L142.773 22.1981L139.449 22.0249L136.125 21.8518V42.9446ZM163.682 22.2944C163.47 22.5057 163.297 31.9844 163.297 43.3584V64.0374H175.148H187V60.8634V57.6894H178.617H170.234V51.0528V44.4162H178.617H187V41.5463V38.677L178.762 38.5166L170.523 38.3567L170.357 33.0186L170.191 27.6805H178.595H187V24.795V21.9095H175.534C169.227 21.9095 163.894 22.0826 163.682 22.2944ZM60.9678 22.7717C60.9678 22.9287 63.9596 27.8697 67.6163 33.7521L74.2648 44.4479V54.2424V64.0374H77.7335H81.2023V54.4536V44.8698L88.1399 33.9575C91.9555 27.9563 95.0774 22.92 95.0774 22.7659C95.0774 22.6124 93.5812 22.4953 91.7532 22.5062L88.4289 22.5259L83.8039 30.0004C81.2601 34.1116 78.9187 37.8656 78.6007 38.3429C78.1469 39.0244 76.9299 37.4155 72.9316 30.8487L67.8406 22.4866H64.4042C62.5143 22.4866 60.9678 22.6147 60.9678 22.7717Z" fill="#FFCB03"/>
</svg>
