<svg width="30" height="30" viewBox="0 0 30 30" fill="none" xmlns="http://www.w3.org/2000/svg">
<path fill-rule="evenodd" clip-rule="evenodd" d="M0.429 1.11493C0.027 1.76593 5.617 8.10893 13.847 16.3379C24.924 27.4149 28.216 30.1839 29.171 29.2289C30.126 28.2739 29.823 27.4209 27.764 25.2569L25.141 22.4999L27.57 19.6939C30.62 16.1729 30.636 13.9789 27.637 10.7429C23.622 6.40993 19.277 4.72893 13.361 5.21993C8.551 5.61893 7.793 5.39293 5.337 2.82993C2.375 -0.262068 1.474 -0.576068 0.429 1.11493ZM2.039 11.1889C0.918 12.3919 0 14.1319 0 15.0539C0 17.3929 3.627 21.7559 7.039 23.5199C10.028 25.0659 20 25.5889 20 24.1999C20 22.5719 17.522 20.9999 14.955 20.9999C11.707 20.9999 9 18.1929 9 14.8259C9 12.5789 6.365 8.99993 4.71 8.99993C4.362 8.99993 3.16 9.98493 2.039 11.1889ZM19.171 10.6549C20.177 11.5649 21 13.6449 21 15.2769C21 17.8019 20.776 18.0589 19.5 16.9999C18.675 16.3149 18 14.9099 18 13.8779C18 12.7069 17.293 11.9999 16.122 11.9999C15.09 11.9999 13.685 11.3249 13 10.4999C11.944 9.22793 12.179 8.99993 14.549 8.99993C16.085 8.99993 18.165 9.74493 19.171 10.6549Z" fill="#FFCB03"/>
</svg>
