<svg width="123" height="49" viewBox="0 0 123 49" fill="none" xmlns="http://www.w3.org/2000/svg">
<path fill-rule="evenodd" clip-rule="evenodd" d="M13.5144 0.651553C11.9333 1.50822 11.4696 2.52134 11.4696 5.11955C11.4696 7.96655 12.9286 9.59866 15.8659 10.0381C18.1878 10.3856 18.521 10.2318 19.1137 8.53553L19.5617 7.25224H17.5284C16.4102 7.25224 15.2638 7.0214 14.9812 6.73926C14.1444 5.90397 14.3461 3.49984 15.2955 2.99242C16.4183 2.39267 24.3169 2.40592 24.3169 3.00781C24.3169 3.2596 22.1007 9.744 19.3921 17.4177C16.6834 25.0917 14.4673 31.5172 14.4673 31.6971C14.4673 31.9852 16.6988 33.3284 17.1776 33.3284C17.2787 33.3284 18.2885 30.6353 19.4225 27.3437C20.556 24.0521 21.6875 21.3599 21.9367 21.3611C22.1859 21.3624 23.1606 21.8373 24.1028 22.4166C25.0449 22.9958 25.9699 23.4759 26.1583 23.4831C26.3468 23.4904 26.4431 22.3956 26.3724 21.0499C26.2513 18.7398 26.1583 18.5552 24.7062 17.737C23.3045 16.9474 23.203 16.7658 23.564 15.6949L23.9601 14.5194H41.4308H58.9014L56.1007 21.2521C53.3677 27.8233 53.3004 28.0772 53.2889 31.8322C53.2795 34.8771 53.4872 36.2147 54.2833 38.2444C55.6519 41.733 59.5631 45.6632 62.9077 46.9102C67.7323 48.7099 72.9757 48.5406 77.2941 46.4464L79.1321 45.5547V42.6624V39.7696L77.3121 40.9918C75.2925 42.3486 71.5608 43.5878 69.4966 43.5878C65.2763 43.5878 61.0709 40.8725 59.4295 37.0876C58.2214 34.3013 58.1109 29.7128 59.1901 27.1282C59.9892 25.2136 62.4751 22.4568 64.2335 21.5356C65.3885 20.9302 65.3966 20.9362 65.872 22.7462C66.1345 23.7465 66.6137 25.5269 66.9362 26.7025C67.2591 27.878 67.7374 29.6704 67.9991 30.6853C68.4599 32.4747 68.516 32.5217 69.8422 32.2383C70.5942 32.0776 71.2601 31.9019 71.3218 31.848C71.3839 31.7946 70.0829 26.7256 68.4312 20.584C66.7798 14.4424 65.4283 9.23103 65.4283 9.00319C65.4283 8.77534 66.0351 8.52869 66.7769 8.45473C68.42 8.29186 69.2791 7.16589 68.5918 6.07667C68.1823 5.42776 67.2689 5.3132 61.6966 5.21103C56.3097 5.11228 55.1843 5.20034 54.7205 5.75778C54.2965 6.26818 54.2798 6.66787 54.6503 7.4788C55.0961 8.45559 55.3569 8.53467 58.1392 8.53467C59.7926 8.53467 61.1459 8.60221 61.1459 8.68471C61.1459 8.76722 60.9343 9.44049 60.6757 10.1809L60.2054 11.527H42.6894C33.0556 11.527 25.1751 11.3825 25.1772 11.2064C25.1802 10.9234 28.0456 2.69105 28.8224 0.733202C29.0982 0.0381236 28.6066 -0.0136008 21.9003 0.00221587C16.367 0.0154677 14.409 0.166794 13.5144 0.651553ZM64.111 16.0288C64.129 16.2712 63.5654 16.6871 62.8588 16.9534C61.3536 17.5207 61.3463 17.4929 62.3094 14.8109L63.049 12.7513L63.5637 14.1697C63.8468 14.9498 64.093 15.7864 64.111 16.0288ZM10.7415 16.5978C6.31692 18.1238 3.61427 20.6302 1.45935 25.2063C0.298807 27.6711 0.152348 28.4192 0.163054 31.8322C0.179327 37.1329 1.29276 39.9162 4.79409 43.4117C6.65566 45.2695 8.08899 46.2703 9.8054 46.9102C14.63 48.7099 19.8734 48.5406 24.1918 46.4464L26.0299 45.5547V42.5816C26.0299 39.7593 25.9913 39.6431 25.2689 40.2954C24.85 40.6737 23.3568 41.521 21.95 42.1784C18.3669 43.8529 13.8317 43.8738 11.0293 42.2285C8.52024 40.7554 7.43335 39.5486 6.28181 36.9568C5.09728 34.2889 5.00007 29.6666 6.07582 27.1299C7.52157 23.7195 11.6473 20.5447 14.6814 20.507C15.388 20.4981 16.1854 20.3497 16.4535 20.177C16.9361 19.8658 18.3215 16.8991 18.3215 16.1771C18.3215 15.5124 13.0386 15.8056 10.7415 16.5978ZM68.426 15.9826C68.426 16.1451 68.6423 17.1351 68.9065 18.1824C69.4114 20.1851 69.3853 20.168 72.9226 20.7238C73.8647 20.8717 75.6445 21.5561 76.8774 22.2447C78.1103 22.933 79.2281 23.4964 79.3612 23.4964C79.4944 23.4964 79.5454 22.3901 79.4747 21.0384L79.3462 18.5804L76.8748 17.3471C75.1203 16.4716 73.5363 16.0519 71.4147 15.9005C69.7707 15.783 68.426 15.8197 68.426 15.9826ZM84.6993 31.8108V47.4351H92.8359H100.973V45.084V42.7329H95.4114H89.8506L89.7372 29.5879L89.6241 16.443L87.1617 16.3148L84.6993 16.1865V31.8108ZM105.112 16.5144C104.955 16.6709 104.827 23.6922 104.827 32.1173V47.4351H113.606H122.385V45.084V42.7329H116.175H109.966V37.8169V32.9009H116.175H122.385V30.7751V28.6496L116.282 28.5308L110.18 28.4124L110.056 24.4582L109.934 20.504H116.159H122.385V18.3667V16.2293H113.891C109.22 16.2293 105.269 16.3575 105.112 16.5144ZM29.0276 16.8679C29.0276 16.9842 31.2437 20.6443 33.9524 25.0015L38.8772 32.9244V40.1796V47.4351H41.4466H44.0161V40.336V33.2369L49.155 25.1537C51.9814 20.7084 54.294 16.9778 54.294 16.8636C54.294 16.7499 53.1857 16.6632 51.8316 16.6713L49.3692 16.6858L45.9432 22.2225C44.0589 25.2679 42.3245 28.0486 42.089 28.4021C41.7528 28.907 40.8514 27.7152 37.8896 22.8509L34.1185 16.6567H31.573C30.1731 16.6567 29.0276 16.7516 29.0276 16.8679Z" fill="#FFCB03"/>
</svg>
