<svg width="30" height="21" viewBox="0 0 30 21" fill="none" xmlns="http://www.w3.org/2000/svg">
<path fill-rule="evenodd" clip-rule="evenodd" d="M8.223 1.60414C4.992 3.25214 0 8.35014 0 10.0001C0 10.4661 1.179 12.2471 2.619 13.9591C9.803 22.4971 21.501 22.0021 28.26 12.8751C30.629 9.67614 29.718 7.41214 24.444 3.39014C19.979 -0.0168617 12.922 -0.792862 8.223 1.60414ZM19.545 5.45514C22.66 8.56914 22.66 11.4311 19.545 14.5451C16.431 17.6601 13.569 17.6601 10.455 14.5451C7.34 11.4311 7.34 8.56914 10.455 5.45514C13.569 2.34014 16.431 2.34014 19.545 5.45514ZM12.389 8.43014C11.393 11.0251 12.788 13.1691 15.246 12.8201C16.898 12.5851 17.5 11.8331 17.5 10.0001C17.5 8.16714 16.898 7.41514 15.246 7.18014C13.893 6.98814 12.75 7.48814 12.389 8.43014Z" fill="#C17D17"/>
</svg>
